{"title":"Breaking Bad S05E14 480p HDTV x264 AAC E-Subs [GWC].mp4","uid":8924445,"size":129572040,"categoryP":"video","categoryS":"tv_shows","magnet":"?xt=urn:btih:fe445d6b1ee04e58a1e0d149a40ac8ed252a4e7a&amp;dn=Breaking+Bad+S05E14+480p+HDTV+x264+AAC+E-Subs+%5BGWC%5D.mp4&amp;tr=udp%3A%2F%2Ftracker.openbittorrent.com%3A80&amp;tr=udp%3A%2F%2Fopen.demonii.com%3A1337&amp;tr=udp%3A%2F%2Ftracker.coppersurfer.tk%3A6969&amp;tr=udp%3A%2F%2Fexodus.desync.com%3A6969","seeders":2,"leechers":0,"uploader":"canc232","files":1,"time":1379289698,"description":"Breaking Bad S05E14 480p HDTV x264 AAC E-Subs [GWC].mp4\n\n\nSCREENS :\n &lt;a href=&quot;\nhttp://s11.postimg.org/4xax01vv7/Breaking_Bad_05x14_Ozymandias_14_59_58.jpg&quot; rel=&quot;nofollow&quot; target=&quot;_NEW&quot;&gt;\nhttp://s11.postimg.org/4xax01vv7/Breaking_Bad_05x14_Ozymandias_14_59_58.jpg&lt;/a&gt; &lt;a href=&quot;\nhttp://s11.postimg.org/uu9n9s5ub/Breaking_Bad_05x14_Ozymandias_15_00_05.jpg&quot; rel=&quot;nofollow&quot; target=&quot;_NEW&quot;&gt;\nhttp://s11.postimg.org/uu9n9s5ub/Breaking_Bad_05x14_Ozymandias_15_00_05.jpg&lt;/a&gt; &lt;a href=&quot;\nhttp://s11.postimg.org/o533trkib/Breaking_Bad_05x14_Ozymandias_15_00_33.jpg&quot; rel=&quot;nofollow&quot; target=&quot;_NEW&quot;&gt;\nhttp://s11.postimg.org/o533trkib/Breaking_Bad_05x14_Ozymandias_15_00_33.jpg&lt;/a&gt;\n\nMEDIA INFO :\n\nGeneral \nFormat : MPEG-4 \nFormat profile : Base Media \nCodec ID : isom \nFile size : 124 MiB \nDuration : 46mn 57s \nOverall bit rate mode : Variable \nOverall bit rate : 368 Kbps \n\nVideo \nID : 1 \nFormat : AVC \nFormat profile : &lt;a class=&quot;__cf_email__&quot; href=&quot;/cdn-cgi/l/email-protection&quot; data-cfemail=&quot;0941606e6149453a2739&quot;&gt;[email&amp;#160;protected]&lt;/a&gt;&lt;script cf-hash='f9e31' type=&quot;text/javascript&quot;&gt;\n/* &lt;![CDATA[ */!function(){try{var t=&quot;currentScript&quot;in document?document.currentScript:function(){for(var t=document.getElementsByTagName(&quot;script&quot;),e=t.length;e--;)if(t[e].getAttribute(&quot;cf-hash&quot;))return t[e]}();if(t&amp;&amp;t.previousSibling){var e,r,n,i,c=t.previousSibling,a=c.getAttribute(&quot;data-cfemail&quot;);if(a){for(e=&quot;&quot;,r=parseInt(a.substr(0,2),16),n=2;a.length-n;n+=2)i=parseInt(a.substr(n,2),16)^r,e+=String.fromCharCode(i);e=document.createTextNode(e),c.parentNode.replaceChild(e,c)}}}catch(u){}}();/* ]]&gt; */&lt;/script&gt; \nFormat settings, CABAC : Yes \nFormat settings, ReFrames : 4 frames \nDuration : 46mn 55s \nBit rate : 301 Kbps \nMaximum bit rate : 1 304 Kbps \nWidth : 720 pixels \nHeight : 408 pixels \nDisplay aspect ratio : 16:9 \nFrame rate : 23.976 fps \nTitle : Breaking Bad S05E13 480p HDTV x264 AAC E-Subs [GWC] \n\nAudio \nID : 2 \nFormat : AAC \nFormat/Info : Advanced Audio Codec \nFormat profile : LC \nCodec ID : 40 \nDuration : 46mn 54s \nBit rate mode : Variable \nChannel(s) : 2 channels \nChannel positions : Front: L R \nSampling rate : 44.1 KHz \nCompression mode : Lossy \nStream size : 19.1 MiB\nLanguage : English \n\nText \nID : 3 \nFormat : Timed Text \nMuxing mode : sbtl \nDuration : 46mn 57s \nStream size : 19.9 KiB (0%) \nTitle : English Subtitle by n17t01 \nLanguage : English","torrent":{"xt":"urn:btih:fe445d6b1ee04e58a1e0d149a40ac8ed252a4e7a","amp;dn":"Breaking+Bad+S05E14+480p+HDTV+x264+AAC+E-Subs+%5BGWC%5D.mp4","amp;tr":["udp%3A%2F%2Ftracker.openbittorrent.com%3A80","udp%3A%2F%2Fopen.demonii.com%3A1337","udp%3A%2F%2Ftracker.coppersurfer.tk%3A6969","udp%3A%2F%2Fexodus.desync.com%3A6969"],"infoHash":"fe445d6b1ee04e58a1e0d149a40ac8ed252a4e7a","infoHashBuffer":{"type":"Buffer","data":[254,68,93,107,30,224,78,88,161,224,209,73,164,10,200,237,37,42,78,122]},"announce":[],"urlList":[]}}